<?xml version="1.0" encoding="UTF-8" standalone="no"?>
<!DOCTYPE svg PUBLIC "-//W3C//DTD SVG 20010904//EN" "http://www.w3.org/TR/2001/REC-SVG-20010904/DTD/svg10.dtd">
<svg version="1.0" xmlns="http://www.w3.org/2000/svg" width="1280.000000pt" height="989.000000pt" viewBox="0 0 1280.000000 989.000000" preserveAspectRatio="xMidYMid meet">
<metadata>
Created by potrace 1.15, written by Peter Selinger 2001-2017
</metadata>
<g transform="translate(0.000000,989.000000) scale(0.100000,-0.100000)" fill="#000000" stroke="none">
<path d="M8775 8839 c-187 -13 -510 -92 -695 -170 -273 -116 -895 -472 -1270 -727 -450 -306 -604 -445 -1245 -1127 -524 -558 -823 -901 -1031 -1185 -130 -176 -166 -250 -167 -344 -2 -136 72 -233 216 -284 54 -18 174 -17 244 3 123 36 350 198 632 450 72 65 425 417 716 716 127 130 253 256 280 280 282 250 399 362 431 411 13 20 41 90 63 155 68 203 92 247 190 343 59 59 108 96 152 117 56 28 258 87 419 123 80 18 344 24 500 12 136 -11 391 -55 420 -73 9 -6 -43 -6 -140 -2 -406 20 -620 5 -869 -63 -276 -75 -446 -205 -496 -379 -14 -46 -13 -56 6 -125 41 -148 113 -230 274 -309 115 -57 199 -83 340 -108 86 -15 179 -17 680 -18 627 -1 685 -5 950 -61 297 -63 385 -88 580 -169 91 -38 387 -187 505 -255 227 -131 482 -254 591 -287 80 -23 111 -27 209 -27 97 1 134 7 235 34 66 18 157 50 203 73 89 42 287 171 439 284 213 157 359 231 551 279 l112 27 0 1083 0 1083 -65 32 c-62 30 -70 32 -148 26 -94 -6 -219 -44 -567 -172 -353 -130 -527 -165 -823 -165 -351 0 -489 30 -1162 255 -719 240 -937 285 -1260 264z"/>
<path d="M6894 6745 c-35 -18 -219 -192 -743 -704 -422 -412 -697 -699 -737 -767 -50 -86 -56 -116 -37 -191 32 -127 139 -196 303 -196 128 0 239 38 356 119 67 47 114 106 239 299 134 206 115 175 368 590 123 204 314 538 358 628 42 88 46 111 25 160 -26 63 -79 88 -132 62z"/>
<path d="M7198 6546 c-20 -8 -51 -25 -68 -38 -35 -26 -141 -177 -243 -348 -38 -63 -97 -162 -132 -220 -124 -207 -308 -538 -386 -694 -71 -142 -79 -165 -79 -215 1 -141 94 -218 234 -194 140 24 258 116 358 278 86 141 275 516 355 704 8 18 17 31 20 28 2 -3 -31 -113 -75 -244 -88 -260 -118 -383 -107 -441 23 -124 102 -171 227 -132 56 17 74 29 115 74 110 120 220 395 362 901 78 279 94 377 70 429 -12 26 -72 56 -112 56 -90 -1 -229 -146 -343 -357 -15 -29 -29 -51 -31 -49 -2 2 15 57 37 122 51 148 61 234 31 281 -11 18 -35 39 -52 49 -44 22 -135 27 -181 10z"/>
<path d="M6149 4811 c-127 -50 -216 -136 -319 -309 -72 -124 -282 -546 -362 -731 -10 -24 -21 -42 -23 -39 -3 3 15 57 39 120 92 237 162 463 181 585 24 150 -73 238 -219 196 -150 -42 -260 -232 -400 -688 -102 -332 -166 -584 -166 -655 0 -43 26 -89 56 -100 105 -40 215 32 337 220 30 47 68 111 83 143 40 81 49 71 13 -15 -43 -103 -79 -233 -79 -282 0 -98 70 -149 197 -143 121 6 162 54 442 522 195 327 409 707 473 842 46 96 57 161 38 227 -13 48 -59 99 -103 115 -43 16 -136 12 -188 -8z"/>
<path d="M6982 4769 c-118 -15 -236 -68 -321 -145 -91 -82 -472 -681 -804 -1264 -134 -236 -161 -299 -151 -353 9 -54 53 -97 100 -97 50 0 57 6 768 705 784 770 823 819 786 975 -21 89 -109 162 -212 175 -87 12 -104 12 -166 4z"/>
<path d="M7933 4665 c-203 -55 -535 -320 -1003 -799 -491 -503 -618 -630 -750 -750 -219 -199 -308 -286 -331 -322 -11 -18 -39 -91 -63 -161 -59 -176 -91 -237 -165 -315 -118 -126 -185 -162 -409 -217 -245 -60 -281 -64 -535 -58 -235 6 -347 19 -502 58 -121 31 -125 41 -15 34 515 -31 756 -12 1030 80 253 85 393 206 421 362 18 102 -25 233 -100 302 -133 123 -340 213 -546 236 -27 3 -66 8 -85 11 -19 2 -170 3 -335 2 -746 -6 -837 -2 -1105 47 -483 90 -649 153 -1190 452 -593 327 -703 353 -1065 248 -135 -39 -271 -115 -490 -275 -279 -204 -442 -293 -602 -333 l-93 -22 0 -1101 0 -1102 41 -16 c116 -46 114 -47 809 201 317 113 625 148 960 108 250 -29 388 -66 896 -241 476 -163 624 -206 860 -245 170 -29 407 -31 544 -5 319 60 477 114 775 265 619 314 1144 651 1535 987 424 364 1492 1530 1817 1984 125 174 157 282 119 398 -50 151 -242 235 -423 187z"/>
</g>
</svg>