<?xml version="1.0" encoding="UTF-8" standalone="no"?>
<!DOCTYPE svg PUBLIC "-//W3C//DTD SVG 20010904//EN" "http://www.w3.org/TR/2001/REC-SVG-20010904/DTD/svg10.dtd">
<svg version="1.0" xmlns="http://www.w3.org/2000/svg" width="1280.000000pt" height="640.000000pt" viewBox="0 0 1280.000000 640.000000" preserveAspectRatio="xMidYMid meet">
<g transform="translate(0.000000,640.000000) scale(0.100000,-0.100000)" fill="#000000" stroke="none">
<path d="M1463 5780 c-119 -22 -246 -89 -339 -180 -101 -99 -160 -206 -188 -343 -32 -154 -14 -286 59 -435 76 -154 207 -268 377 -330 70 -26 81 -27 268 -27 194 1 195 1 277 32 177 68 308 189 383 356 41 93 55 161 55 277 -1 188 -61 329 -199 465 -85 84 -155 128 -266 165 -53 18 -93 23 -220 26 -85 1 -178 -1 -207 -6z"/>
<path d="M4624 5775 c-206 -45 -369 -173 -459 -360 -52 -107 -67 -178 -67 -301 1 -183 60 -322 192 -455 149 -149 280 -199 525 -199 239 0 375 50 515 190 85 85 130 155 167 262 23 64 26 90 27 203 1 109 -3 142 -22 205 -54 173 -175 316 -335 395 -50 25 -123 52 -162 60 -87 18 -298 18 -381 0z"/>
<path d="M7790 5775 c-36 -8 -107 -35 -157 -60 -160 -79 -281 -222 -335 -395 -19 -63 -23 -96 -22 -205 1 -113 4 -139 27 -203 37 -107 82 -177 167 -262 140 -140 276 -190 515 -190 245 0 376 50 525 199 132 133 191 272 192 455 0 124 -15 194 -69 305 -78 162 -221 285 -398 341 -91 29 -344 38 -445 15z"/>
<path d="M10990 5780 c-135 -25 -242 -83 -346 -185 -138 -136 -198 -277 -199 -465 0 -116 14 -184 55 -277 75 -167 206 -288 383 -356 82 -31 83 -31 277 -32 187 0 198 1 268 27 106 38 175 83 258 165 119 118 193 295 194 461 1 290 -191 553 -470 643 -52 17 -96 22 -220 25 -85 1 -175 -1 -200 -6z"/>
<path d="M1465 4399 c-16 -5 -83 -18 -149 -29 -424 -72 -800 -318 -1051 -685 -61 -91 -156 -288 -189 -392 -23 -74 -66 -264 -66 -292 0 -8 57 -11 197 -9 l197 3 12 66 c41 224 168 467 336 644 117 124 118 122 44 -90 -83 -242 -124 -478 -133 -767 l-6 -198 204 -2 204 -3 3 -1013 2 -1012 215 0 215 0 2 1012 3 1013 135 0 135 0 3 -1012 2 -1013 210 0 210 0 0 1003 c0 767 3 1006 12 1015 9 9 69 12 210 12 l198 0 0 124 c0 285 -44 557 -136 835 -30 90 -53 169 -50 175 7 18 169 -157 229 -247 97 -146 154 -275 191 -442 l23 -100 350 -3 349 -2 13 67 c28 152 103 333 197 474 89 133 223 275 237 252 2 -5 -13 -54 -34 -110 -97 -257 -159 -620 -159 -929 l0 -94 198 0 c141 0 201 -3 210 -12 9 -9 12 -248 12 -1015 l0 -1003 210 0 210 0 2 1012 3 1013 135 0 135 0 5 -1010 5 -1010 212 -3 213 -2 2 1012 3 1013 201 3 202 2 5 29 c9 42 -11 364 -28 484 -30 199 -86 410 -156 584 -25 61 3 48 91 -43 89 -94 173 -211 228 -320 36 -70 96 -252 112 -336 l11 -58 349 0 349 0 11 58 c19 100 80 274 127 364 56 106 149 231 237 317 68 67 89 73 67 18 -70 -174 -126 -385 -156 -584 -17 -120 -37 -442 -28 -484 l5 -29 202 -2 201 -3 3 -1013 2 -1012 213 2 212 3 5 1010 5 1010 135 0 135 0 3 -1013 2 -1012 210 0 210 0 0 1003 c0 767 3 1006 12 1015 9 9 69 12 210 12 l198 0 0 94 c0 309 -62 672 -159 929 -21 56 -36 105 -34 110 14 23 148 -119 237 -252 94 -141 169 -322 197 -474 l13 -67 349 2 350 3 23 100 c37 167 94 296 191 442 60 90 222 265 229 247 3 -6 -20 -85 -50 -175 -92 -278 -136 -550 -136 -835 l0 -124 198 0 c141 0 201 -3 210 -12 9 -9 12 -248 12 -1015 l0 -1003 210 0 210 0 2 1012 3 1013 135 0 135 0 3 -1013 2 -1012 215 0 215 0 2 1013 3 1012 204 3 204 2 -6 198 c-9 289 -50 525 -133 767 -74 212 -73 214 44 90 168 -177 295 -420 336 -644 l12 -66 198 -3 197 -2 -7 47 c-3 27 -19 98 -34 158 -151 605 -653 1070 -1266 1175 -65 11 -135 25 -154 30 -46 13 -283 12 -340 -1 -24 -5 -94 -19 -155 -29 -557 -95 -1015 -481 -1221 -1030 -18 -47 -36 -85 -40 -85 -4 0 -24 43 -44 95 -90 235 -194 395 -374 576 -235 234 -485 370 -798 434 -57 11 -136 27 -176 35 -82 17 -308 20 -362 5 -19 -5 -87 -18 -151 -29 -565 -97 -1042 -500 -1234 -1043 -15 -43 -31 -78 -35 -78 -4 0 -20 35 -35 78 -139 394 -443 732 -819 911 -131 63 -270 107 -415 132 -64 11 -132 24 -151 29 -54 15 -280 12 -362 -5 -40 -8 -119 -24 -176 -35 -313 -64 -563 -200 -798 -434 -179 -180 -284 -341 -373 -574 -20 -52 -40 -93 -46 -91 -5 1 -24 39 -41 83 -149 397 -419 699 -791 886 -122 61 -273 111 -403 135 -52 9 -125 23 -162 31 -74 16 -314 18 -363 3z"/>
</g>
</svg>